# xmcd
#
# Track frame offsets:
#	150
#	13602
#	28255
#	43643
#	60975
#	74684
#	90583
#	105448
#	122932
#	138514
#	151014
#	171872
#	188624
#	203391
#	218385
#	234659
#
# Disc length: 3403 seconds
#
# Revision: 1
# Processed by: cddbd v1.5.2PL0 Copyright (c) Steve Scherf et al.
# Submitted via: audiograbber 1.83.01
#
DISCID=cd0d4910
DTITLE=Justin Moore - Off The Beaten Path
DYEAR=2013
DGENRE=Country
TTITLE0=Old Back In The New School
TTITLE1=Beer
TTITLE2=Lettin' The Night Roll
TTITLE3=Old Habits
TTITLE4=Point At You
TTITLE5=Wheels
TTITLE6=I'd Want It To Be Yours
TTITLE7=This Kind Of Town
TTITLE8=Dirt Road Kid
TTITLE9=Country Radio
TTITLE10=That's How I Know You Love Me
TTITLE11=One Dirt Road
TTITLE12=Off The Beaten Path
TTITLE13=Field Fulla Hillbillies
TTITLE14=Big Ass Headache
TTITLE15=For Some Ol' Redneck Reason (featuring Charlie Daniels)
EXTD=
EXTT0=
EXTT1=
EXTT2=
EXTT3=
EXTT4=
EXTT5=
EXTT6=
EXTT7=
EXTT8=
EXTT9=
EXTT10=
EXTT11=
EXTT12=
EXTT13=
EXTT14=
EXTT15=
PLAYORDER=
